<?xml version="1.0" encoding="UTF-8"?>
<!DOCTYPE svg PUBLIC "-//W3C//DTD SVG 1.1//EN" "http://www.w3.org/Graphics/SVG/1.1/DTD/svg11.dtd">
<svg version="1.1" xmlns="http://www.w3.org/2000/svg" xmlns:xlink="http://www.w3.org/1999/xlink" width="100" height="100"  xml:space="preserve" id="identity">
    <!-- Generated by PaintCode (www.paintcodeapp.com) -->
    <g id="identity-group">
        <path id="identity-bezier2" stroke="rgb(0, 0, 0)" stroke-width="4" stroke-linecap="round" stroke-linejoin="round" stroke-miterlimit="10" fill="none" d="M 69.98,11.02 L 11,41.5 11,33 C 11,24.68 11,18.64 11,18.64 11,16.44 11,15.34 11.33,14.35 L 11.37,14.16 C 11.85,12.86 12.86,11.85 14.16,11.37 15.34,11 16.44,11 18.64,11 L 81.36,11 C 83.56,11 84.66,11 85.65,11.33 L 85.84,11.37 C 87.14,11.85 88.15,12.86 88.63,14.16 89,15.34 89,16.44 89,18.64 89,18.64 89,20.68 89,29 L 70.89,38.26" />
        <path id="identity-bezier" stroke="rgb(0, 0, 0)" stroke-width="4" stroke-linecap="round" stroke-linejoin="round" stroke-miterlimit="10" fill="rgb(0, 0, 0)" d="M 69.98,11.02 L 11,41.5 11,33 C 11,24.68 11,18.64 11,18.64 11,16.44 11,15.34 11.33,14.35 L 11.37,14.16 C 11.85,12.86 12.86,11.85 14.16,11.37 15.34,11 16.44,11 18.64,11 L 69.98,11.02 Z M 69.98,11.02" />
    </g>
    <g id="identity-group2" transform="translate(50, 50) rotate(180)" >
        <path id="identity-bezier3" stroke="rgb(0, 0, 0)" stroke-width="4" stroke-linecap="round" stroke-linejoin="round" stroke-miterlimit="10" fill="none" d="M 19.98,-38.98 L -39,-8.5 -39,-17 C -39,-25.32 -39,-31.36 -39,-31.36 -39,-33.56 -39,-34.66 -38.67,-35.65 L -38.63,-35.84 C -38.15,-37.14 -37.14,-38.15 -35.84,-38.63 -34.66,-39 -33.56,-39 -31.36,-39 L 31.36,-39 C 33.56,-39 34.66,-39 35.65,-38.67 L 35.84,-38.63 C 37.14,-38.15 38.15,-37.14 38.63,-35.84 39,-34.66 39,-33.56 39,-31.36 39,-31.36 39,-29.32 39,-21 L 20.89,-11.74" />
        <path id="identity-bezier4" stroke="rgb(0, 0, 0)" stroke-width="4" stroke-linecap="round" stroke-linejoin="round" stroke-miterlimit="10" fill="rgb(0, 0, 0)" d="M 19.98,-38.98 L -39,-8.5 -39,-17 C -39,-25.32 -39,-31.36 -39,-31.36 -39,-33.56 -39,-34.66 -38.67,-35.65 L -38.63,-35.84 C -38.15,-37.14 -37.14,-38.15 -35.84,-38.63 -34.66,-39 -33.56,-39 -31.36,-39 L 19.98,-38.98 Z M 19.98,-38.98" />
    </g>
    <g id="identity-group3">
        <circle id="identity-oval" stroke="rgb(0, 0, 0)" stroke-width="3.5" fill="rgb(0, 0, 0)" cx="49.79" cy="49.77" r="7.78" />
    </g>
</svg>
